<mxfile host="app.diagrams.net" modified="2023-07-17T17:32:36.787Z" agent="Mozilla/5.0 (Macintosh; Intel Mac OS X 10_15_7) AppleWebKit/537.36 (KHTML, like Gecko) Chrome/116.0.0.0 Safari/537.36" etag="XmeLlwA3djQNvWjHVhtX" version="21.6.2" type="github">
  <diagram name="Page-1" id="97916047-d0de-89f5-080d-49f4d83e522f">
    <mxGraphModel dx="1990" dy="1015" grid="1" gridSize="10" guides="1" tooltips="1" connect="1" arrows="1" fold="1" page="1" pageScale="1.5" pageWidth="1169" pageHeight="827" background="none" math="0" shadow="0">
      <root>
        <mxCell id="0" />
        <mxCell id="1" parent="0" />
        <mxCell id="AFqa1zMxlnUFJuGv1aCF-57" value="" style="edgeStyle=orthogonalEdgeStyle;rounded=0;orthogonalLoop=1;jettySize=auto;html=1;" edge="1" parent="1" source="AFqa1zMxlnUFJuGv1aCF-55" target="AFqa1zMxlnUFJuGv1aCF-56">
          <mxGeometry relative="1" as="geometry" />
        </mxCell>
        <mxCell id="AFqa1zMxlnUFJuGv1aCF-55" value="&lt;font style=&quot;font-size: 24px;&quot;&gt;动物实验&lt;/font&gt;" style="rounded=1;whiteSpace=wrap;html=1;fillColor=#F2FF40;" vertex="1" parent="1">
          <mxGeometry x="860" width="120" height="60" as="geometry" />
        </mxCell>
        <mxCell id="AFqa1zMxlnUFJuGv1aCF-60" value="" style="edgeStyle=orthogonalEdgeStyle;rounded=0;orthogonalLoop=1;jettySize=auto;html=1;fillColor=#BFFF8F;" edge="1" parent="1" source="AFqa1zMxlnUFJuGv1aCF-56" target="AFqa1zMxlnUFJuGv1aCF-59">
          <mxGeometry relative="1" as="geometry">
            <Array as="points">
              <mxPoint x="920" y="230" />
              <mxPoint x="770" y="230" />
            </Array>
          </mxGeometry>
        </mxCell>
        <mxCell id="AFqa1zMxlnUFJuGv1aCF-61" value="" style="edgeStyle=orthogonalEdgeStyle;rounded=0;orthogonalLoop=1;jettySize=auto;html=1;fillColor=#BFFF8F;" edge="1" parent="1" source="AFqa1zMxlnUFJuGv1aCF-56" target="AFqa1zMxlnUFJuGv1aCF-59">
          <mxGeometry relative="1" as="geometry">
            <Array as="points">
              <mxPoint x="920" y="230" />
              <mxPoint x="770" y="230" />
            </Array>
          </mxGeometry>
        </mxCell>
        <mxCell id="AFqa1zMxlnUFJuGv1aCF-63" value="" style="edgeStyle=orthogonalEdgeStyle;rounded=0;orthogonalLoop=1;jettySize=auto;html=1;fillColor=#BFFF8F;" edge="1" parent="1" source="AFqa1zMxlnUFJuGv1aCF-56" target="AFqa1zMxlnUFJuGv1aCF-62">
          <mxGeometry relative="1" as="geometry">
            <Array as="points">
              <mxPoint x="920" y="230" />
              <mxPoint x="1060" y="230" />
            </Array>
          </mxGeometry>
        </mxCell>
        <mxCell id="AFqa1zMxlnUFJuGv1aCF-65" value="" style="edgeStyle=orthogonalEdgeStyle;rounded=0;orthogonalLoop=1;jettySize=auto;html=1;fillColor=#BFFF8F;" edge="1" parent="1" source="AFqa1zMxlnUFJuGv1aCF-56" target="AFqa1zMxlnUFJuGv1aCF-64">
          <mxGeometry relative="1" as="geometry" />
        </mxCell>
        <mxCell id="AFqa1zMxlnUFJuGv1aCF-56" value="&lt;font style=&quot;font-size: 24px;&quot;&gt;db/db小鼠&lt;/font&gt;" style="whiteSpace=wrap;html=1;fillColor=#BFFF8F;rounded=1;" vertex="1" parent="1">
          <mxGeometry x="860" y="140" width="120" height="60" as="geometry" />
        </mxCell>
        <mxCell id="AFqa1zMxlnUFJuGv1aCF-67" value="" style="edgeStyle=orthogonalEdgeStyle;rounded=0;orthogonalLoop=1;jettySize=auto;html=1;" edge="1" parent="1" source="AFqa1zMxlnUFJuGv1aCF-59" target="AFqa1zMxlnUFJuGv1aCF-66">
          <mxGeometry relative="1" as="geometry">
            <Array as="points">
              <mxPoint x="770" y="370" />
              <mxPoint x="920" y="370" />
            </Array>
          </mxGeometry>
        </mxCell>
        <mxCell id="AFqa1zMxlnUFJuGv1aCF-59" value="&lt;font style=&quot;font-size: 24px;&quot;&gt;对照组&lt;/font&gt;" style="whiteSpace=wrap;html=1;fillColor=#BFFF8F;rounded=1;" vertex="1" parent="1">
          <mxGeometry x="710" y="270" width="120" height="60" as="geometry" />
        </mxCell>
        <mxCell id="AFqa1zMxlnUFJuGv1aCF-68" style="edgeStyle=orthogonalEdgeStyle;rounded=0;orthogonalLoop=1;jettySize=auto;html=1;" edge="1" parent="1" source="AFqa1zMxlnUFJuGv1aCF-62" target="AFqa1zMxlnUFJuGv1aCF-66">
          <mxGeometry relative="1" as="geometry">
            <Array as="points">
              <mxPoint x="1060" y="370" />
              <mxPoint x="920" y="370" />
            </Array>
          </mxGeometry>
        </mxCell>
        <mxCell id="AFqa1zMxlnUFJuGv1aCF-62" value="&lt;font style=&quot;font-size: 24px;&quot;&gt;给药组&lt;/font&gt;" style="whiteSpace=wrap;html=1;fillColor=#BFFF8F;rounded=1;" vertex="1" parent="1">
          <mxGeometry x="1000" y="270" width="120" height="60" as="geometry" />
        </mxCell>
        <mxCell id="AFqa1zMxlnUFJuGv1aCF-69" style="edgeStyle=orthogonalEdgeStyle;rounded=0;orthogonalLoop=1;jettySize=auto;html=1;" edge="1" parent="1" source="AFqa1zMxlnUFJuGv1aCF-64">
          <mxGeometry relative="1" as="geometry">
            <mxPoint x="919.9999999999998" y="400" as="targetPoint" />
          </mxGeometry>
        </mxCell>
        <mxCell id="AFqa1zMxlnUFJuGv1aCF-84" style="edgeStyle=orthogonalEdgeStyle;rounded=0;orthogonalLoop=1;jettySize=auto;html=1;" edge="1" parent="1">
          <mxGeometry relative="1" as="geometry">
            <mxPoint x="550" y="490" as="targetPoint" />
            <mxPoint x="900" y="370.01" as="sourcePoint" />
          </mxGeometry>
        </mxCell>
        <mxCell id="AFqa1zMxlnUFJuGv1aCF-85" value="" style="edgeStyle=orthogonalEdgeStyle;rounded=0;orthogonalLoop=1;jettySize=auto;html=1;" edge="1" parent="1" source="AFqa1zMxlnUFJuGv1aCF-64" target="AFqa1zMxlnUFJuGv1aCF-66">
          <mxGeometry relative="1" as="geometry" />
        </mxCell>
        <mxCell id="AFqa1zMxlnUFJuGv1aCF-64" value="&lt;font style=&quot;font-size: 24px;&quot;&gt;模型组&lt;/font&gt;" style="whiteSpace=wrap;html=1;fillColor=#BFFF8F;rounded=1;" vertex="1" parent="1">
          <mxGeometry x="860" y="270" width="120" height="60" as="geometry" />
        </mxCell>
        <mxCell id="AFqa1zMxlnUFJuGv1aCF-71" value="" style="edgeStyle=orthogonalEdgeStyle;rounded=0;orthogonalLoop=1;jettySize=auto;html=1;exitX=0.498;exitY=0.974;exitDx=0;exitDy=0;exitPerimeter=0;" edge="1" parent="1" source="AFqa1zMxlnUFJuGv1aCF-66" target="AFqa1zMxlnUFJuGv1aCF-70">
          <mxGeometry relative="1" as="geometry" />
        </mxCell>
        <mxCell id="AFqa1zMxlnUFJuGv1aCF-66" value="&lt;font style=&quot;font-size: 24px;&quot;&gt;三代&lt;br&gt;宏基因组测序&lt;/font&gt;" style="rhombus;whiteSpace=wrap;html=1;fillColor=#D1FF66;rounded=1;" vertex="1" parent="1">
          <mxGeometry x="830" y="400.25" width="180" height="149.75" as="geometry" />
        </mxCell>
        <mxCell id="AFqa1zMxlnUFJuGv1aCF-75" value="" style="edgeStyle=orthogonalEdgeStyle;rounded=0;orthogonalLoop=1;jettySize=auto;html=1;" edge="1" parent="1" source="AFqa1zMxlnUFJuGv1aCF-70" target="AFqa1zMxlnUFJuGv1aCF-74">
          <mxGeometry relative="1" as="geometry" />
        </mxCell>
        <mxCell id="AFqa1zMxlnUFJuGv1aCF-70" value="&lt;font style=&quot;font-size: 24px;&quot;&gt;相关性分析&lt;/font&gt;" style="whiteSpace=wrap;html=1;fillColor=#D1FF66;rounded=1;" vertex="1" parent="1">
          <mxGeometry x="850" y="620.01" width="140" height="60" as="geometry" />
        </mxCell>
        <mxCell id="AFqa1zMxlnUFJuGv1aCF-77" value="" style="edgeStyle=orthogonalEdgeStyle;rounded=0;orthogonalLoop=1;jettySize=auto;html=1;" edge="1" parent="1" source="AFqa1zMxlnUFJuGv1aCF-74" target="AFqa1zMxlnUFJuGv1aCF-76">
          <mxGeometry relative="1" as="geometry" />
        </mxCell>
        <mxCell id="AFqa1zMxlnUFJuGv1aCF-74" value="&lt;font style=&quot;font-size: 24px;&quot;&gt;复方药物通过影响肠道菌群调控JAK2/STAT3通路&lt;/font&gt;" style="whiteSpace=wrap;html=1;fillColor=#D1FF66;rounded=1;" vertex="1" parent="1">
          <mxGeometry x="680" y="760.01" width="480" height="60" as="geometry" />
        </mxCell>
        <mxCell id="AFqa1zMxlnUFJuGv1aCF-79" value="" style="edgeStyle=orthogonalEdgeStyle;rounded=0;orthogonalLoop=1;jettySize=auto;html=1;fillColor=#FFE7D6;" edge="1" parent="1" source="AFqa1zMxlnUFJuGv1aCF-76" target="AFqa1zMxlnUFJuGv1aCF-78">
          <mxGeometry relative="1" as="geometry" />
        </mxCell>
        <mxCell id="AFqa1zMxlnUFJuGv1aCF-76" value="&lt;font style=&quot;font-size: 24px;&quot;&gt;cibersort免疫浸润分析&lt;/font&gt;" style="whiteSpace=wrap;html=1;fillColor=#FFE7D6;rounded=1;" vertex="1" parent="1">
          <mxGeometry x="820" y="900.01" width="200" height="60" as="geometry" />
        </mxCell>
        <mxCell id="AFqa1zMxlnUFJuGv1aCF-82" value="" style="edgeStyle=orthogonalEdgeStyle;rounded=0;orthogonalLoop=1;jettySize=auto;html=1;" edge="1" parent="1" source="AFqa1zMxlnUFJuGv1aCF-78" target="AFqa1zMxlnUFJuGv1aCF-81">
          <mxGeometry relative="1" as="geometry" />
        </mxCell>
        <mxCell id="AFqa1zMxlnUFJuGv1aCF-78" value="&lt;font style=&quot;font-size: 24px;&quot;&gt;巨噬细胞关联性分析&lt;/font&gt;" style="whiteSpace=wrap;html=1;fillColor=#FFE7D6;rounded=1;" vertex="1" parent="1">
          <mxGeometry x="810" y="1040.01" width="220" height="60" as="geometry" />
        </mxCell>
        <mxCell id="AFqa1zMxlnUFJuGv1aCF-81" value="&lt;font style=&quot;font-size: 24px;&quot;&gt;复方药物通过肠道菌群介导JAK2/STAT3通路调控糖尿病小鼠肾巨噬细胞极化&lt;/font&gt;" style="whiteSpace=wrap;html=1;fillColor=#FFA98F;rounded=1;" vertex="1" parent="1">
          <mxGeometry x="760" y="1180.01" width="320" height="99.99" as="geometry" />
        </mxCell>
        <mxCell id="AFqa1zMxlnUFJuGv1aCF-92" value="" style="edgeStyle=orthogonalEdgeStyle;rounded=0;orthogonalLoop=1;jettySize=auto;html=1;fillColor=#E0C410;" edge="1" parent="1" source="AFqa1zMxlnUFJuGv1aCF-86">
          <mxGeometry relative="1" as="geometry">
            <mxPoint x="320" y="630" as="targetPoint" />
            <Array as="points">
              <mxPoint x="550" y="590" />
              <mxPoint x="320" y="590" />
            </Array>
          </mxGeometry>
        </mxCell>
        <mxCell id="AFqa1zMxlnUFJuGv1aCF-94" value="" style="edgeStyle=orthogonalEdgeStyle;rounded=0;orthogonalLoop=1;jettySize=auto;html=1;fillColor=#E0C410;" edge="1" parent="1" source="AFqa1zMxlnUFJuGv1aCF-86" target="AFqa1zMxlnUFJuGv1aCF-93">
          <mxGeometry relative="1" as="geometry" />
        </mxCell>
        <mxCell id="AFqa1zMxlnUFJuGv1aCF-96" value="" style="edgeStyle=orthogonalEdgeStyle;rounded=0;orthogonalLoop=1;jettySize=auto;html=1;fillColor=#E0C410;" edge="1" parent="1" source="AFqa1zMxlnUFJuGv1aCF-86" target="AFqa1zMxlnUFJuGv1aCF-93">
          <mxGeometry relative="1" as="geometry" />
        </mxCell>
        <mxCell id="AFqa1zMxlnUFJuGv1aCF-98" value="" style="edgeStyle=orthogonalEdgeStyle;rounded=0;orthogonalLoop=1;jettySize=auto;html=1;fillColor=#E0C410;" edge="1" parent="1" source="AFqa1zMxlnUFJuGv1aCF-86" target="AFqa1zMxlnUFJuGv1aCF-97">
          <mxGeometry relative="1" as="geometry" />
        </mxCell>
        <mxCell id="AFqa1zMxlnUFJuGv1aCF-100" value="" style="edgeStyle=orthogonalEdgeStyle;rounded=0;orthogonalLoop=1;jettySize=auto;html=1;fillColor=#E0C410;" edge="1" parent="1" source="AFqa1zMxlnUFJuGv1aCF-86" target="AFqa1zMxlnUFJuGv1aCF-99">
          <mxGeometry relative="1" as="geometry">
            <Array as="points">
              <mxPoint x="550" y="590" />
              <mxPoint x="770" y="590" />
            </Array>
          </mxGeometry>
        </mxCell>
        <mxCell id="AFqa1zMxlnUFJuGv1aCF-86" value="&lt;font style=&quot;font-size: 24px;&quot;&gt;功能检测&lt;/font&gt;" style="whiteSpace=wrap;html=1;fillColor=#E0C410;rounded=1;" vertex="1" parent="1">
          <mxGeometry x="490" y="490" width="120" height="60" as="geometry" />
        </mxCell>
        <mxCell id="AFqa1zMxlnUFJuGv1aCF-91" value="&lt;font style=&quot;font-size: 24px;&quot;&gt;HE/IF&lt;/font&gt;" style="whiteSpace=wrap;html=1;fillColor=#E0C410;rounded=1;" vertex="1" parent="1">
          <mxGeometry x="260" y="630" width="120" height="60" as="geometry" />
        </mxCell>
        <mxCell id="AFqa1zMxlnUFJuGv1aCF-93" value="&lt;font style=&quot;font-size: 24px;&quot;&gt;WB/QPCR&lt;/font&gt;" style="whiteSpace=wrap;html=1;fillColor=#E0C410;rounded=1;" vertex="1" parent="1">
          <mxGeometry x="410" y="630" width="120" height="60" as="geometry" />
        </mxCell>
        <mxCell id="AFqa1zMxlnUFJuGv1aCF-97" value="&lt;font style=&quot;font-size: 24px;&quot;&gt;ELISA&lt;/font&gt;" style="whiteSpace=wrap;html=1;fillColor=#E0C410;rounded=1;" vertex="1" parent="1">
          <mxGeometry x="570" y="630" width="120" height="60" as="geometry" />
        </mxCell>
        <mxCell id="AFqa1zMxlnUFJuGv1aCF-99" value="&lt;font style=&quot;font-size: 24px;&quot;&gt;透射电镜&lt;/font&gt;" style="whiteSpace=wrap;html=1;fillColor=#E0C410;rounded=1;" vertex="1" parent="1">
          <mxGeometry x="710" y="630" width="120" height="60" as="geometry" />
        </mxCell>
        <mxCell id="AFqa1zMxlnUFJuGv1aCF-105" style="edgeStyle=orthogonalEdgeStyle;rounded=0;orthogonalLoop=1;jettySize=auto;html=1;entryX=1;entryY=0.5;entryDx=0;entryDy=0;" edge="1" parent="1" source="AFqa1zMxlnUFJuGv1aCF-101" target="AFqa1zMxlnUFJuGv1aCF-70">
          <mxGeometry relative="1" as="geometry" />
        </mxCell>
        <mxCell id="AFqa1zMxlnUFJuGv1aCF-101" value="&lt;font style=&quot;font-size: 24px;&quot;&gt;分子对接&lt;/font&gt;" style="whiteSpace=wrap;html=1;fillColor=#70FFA9;rounded=1;" vertex="1" parent="1">
          <mxGeometry x="1180" y="570" width="120" height="60" as="geometry" />
        </mxCell>
        <mxCell id="AFqa1zMxlnUFJuGv1aCF-106" style="edgeStyle=orthogonalEdgeStyle;rounded=0;orthogonalLoop=1;jettySize=auto;html=1;entryX=1;entryY=0.5;entryDx=0;entryDy=0;" edge="1" parent="1" source="AFqa1zMxlnUFJuGv1aCF-103" target="AFqa1zMxlnUFJuGv1aCF-70">
          <mxGeometry relative="1" as="geometry" />
        </mxCell>
        <mxCell id="AFqa1zMxlnUFJuGv1aCF-103" value="&lt;font style=&quot;font-size: 24px;&quot;&gt;顺式作用元件分析&lt;/font&gt;" style="whiteSpace=wrap;html=1;fillColor=#70FFA9;rounded=1;" vertex="1" parent="1">
          <mxGeometry x="1180" y="680.01" width="120" height="60" as="geometry" />
        </mxCell>
      </root>
    </mxGraphModel>
  </diagram>
</mxfile>
